<svg xmlns="http://www.w3.org/2000/svg" viewBox="0 0 850.39 708.66"><title>Loefbijter Logo</title><g id="Laag_1" data-name="Laag 1"><polygon points="486.89 436.48 483.02 437.12 479.03 437.51 475.04 437.68 473.05 437.72 471.06 437.68 463.34 437.23 456.17 436.48 452.56 435.97 449.2 435.23 445.92 434.39 442.87 433.36 439.92 432.19 437.11 430.87 434.39 429.41 431.73 427.87 421.37 421.29 416.22 418.27 413.55 416.9 410.86 415.63 407.89 414.42 404.83 413.31 401.69 412.35 398.4 411.56 395.06 410.87 391.5 410.33 387.83 409.92 384.02 409.69 379.25 409.54 374.71 409.65 370.35 410 366.14 410.53 362.14 411.26 358.24 412.12 354.5 413.19 350.93 414.38 347.39 415.69 344.01 417.1 337.42 420.19 324.94 426.96 329.15 431.91 333.58 436.76 342.25 445.73 354.5 442.83 360.64 441.69 366.85 440.84 373.14 440.27 379.56 440 386.16 440 392.95 440.38 395.59 440.66 398.14 441.04 400.69 441.53 403.08 442.1 405.44 442.79 407.78 443.51 412.29 445.19 429.92 452.92 438.59 456.22 447.95 459.29 452.85 460.59 457.88 461.69 462.97 462.52 468.11 463.03 470.72 463.17 473.31 463.2 478.54 463.03 480.69 462.89 483.02 462.56 485.38 462.18 487.75 461.71 490.05 461.16 491.11 460.85 492.15 460.52 493.12 460.12 493.99 459.73 494.43 459.51 494.82 459.32 495.18 459.1 495.55 458.86 496.14 458.44 496.72 457.95 497.28 457.46 497.84 456.88 498.32 456.32 498.78 455.66 499.24 455 499.7 454.32 500.06 453.6 500.45 452.87 500.84 452.08 501.17 451.3 501.46 450.48 501.72 449.62 502.2 447.9 502.38 447.01 502.53 446.11 502.74 444.3 502.81 443.37 502.84 442.44 502.81 440.58 502.71 439.61 502.61 438.7 502.43 437.75 502.3 436.82 502.07 435.93 501.82 435 501.53 434.12 501.24 433.21 500.61 433.15 500 433.13 499.43 433.13 498.86 433.15 498.32 433.15 497.78 433.21 496.76 433.36 495.75 433.55 494.86 433.76 493.93 434.05 493.09 434.35 489.89 435.58 488.4 436.1 487.64 436.33 486.89 436.48" style="fill:#388fc5"/><polygon points="185.96 398.05 185.76 398.47 185.66 398.92 176.96 403.04 168.38 407.29 151.98 413.26 135.29 418.92 129.39 420.37 127.99 420.84 127.25 421.07 126.56 421.33 125.88 421.64 125.2 421.97 124.56 422.35 123.94 422.78 125.06 423.58 126.16 424.4 127.2 425.23 128.19 426.14 130.13 427.98 131.99 429.92 139.14 437.98 143.83 436.31 148.89 434.77 154.22 433.39 159.81 432.18 171.67 430.3 184.16 429.05 188.3 428.85 192.2 428.85 196 429.01 199.62 429.35 203.11 429.81 206.48 430.41 209.72 431.16 212.84 431.95 218.89 433.81 224.65 435.89 235.78 440.08 235.84 438.68 235.95 437.34 236.14 436.07 236.38 434.87 236.73 433.74 237.07 432.68 237.49 431.62 237.92 430.61 238.43 429.67 238.96 428.73 240.1 426.91 242.35 423.39 238.02 422.53 233.84 421.53 229.83 420.37 225.95 419.13 218.59 416.29 211.59 413.05 204.91 409.56 198.49 405.84 185.96 398.05" style="fill:#009fe3"/><polygon points="680.76 396.86 676.27 397.54 671.75 397.92 667.28 398.13 666.19 398.13 665.61 398.13 665.05 398.13 662.89 398.1 658.57 397.87 654.46 397.44 650.48 396.9 646.72 396.24 644.88 395.86 643.06 395.41 641.25 394.87 639.55 394.29 636.24 393.05 633.06 391.58 630.02 390.04 627.07 388.39 621.37 384.88 610.07 377.92 607.12 376.4 604.08 374.97 600.87 373.7 599.22 373.18 597.55 372.7 593.93 371.81 590.12 371.06 586.16 370.45 582 369.98 577.69 369.72 573.28 369.62 568.75 369.72 564.13 370 560.77 370.42 557.56 370.94 554.39 371.63 551.33 372.42 548.39 373.34 545.49 374.36 539.91 376.66 519.1 387.33 519.95 388.5 520.85 389.68 522.9 392.04 527.77 397.17 532.17 402.47 533.5 403.89 534.16 404.53 534.8 405.09 535.08 405.32 535.47 405.56 536.06 405.95 536.71 406.26 537.29 406.39 537.98 406.39 538.38 406.37 538.82 406.29 539.81 406.05 540.87 405.8 545.04 404.62 552.14 403.08 559.57 401.94 567.27 401.15 575.08 400.73 578.99 400.73 582.85 400.89 586.71 401.18 590.48 401.58 594.17 402.17 597.82 402.89 601.32 403.82 604.69 404.91 612 407.74 618.82 410.75 625.35 413.66 631.84 416.21 641.2 419.44 646.08 420.87 651.24 422.13 656.56 423.1 662.17 423.73 665.05 423.9 668.05 423.96 671.06 423.9 674.18 423.71 678.25 423.21 680.49 422.82 682.72 422.32 684.92 421.76 685.98 421.45 686.93 421.11 687.89 420.76 688.78 420.33 689.21 420.15 689.58 419.94 689.92 419.74 690.32 419.49 690.92 419.04 691.51 418.55 692.11 418 692.64 417.44 693.18 416.79 693.39 416.48 693.67 416.13 694.13 415.45 694.54 414.72 694.97 413.98 695.34 413.15 695.68 412.35 696 411.51 696.3 410.63 696.57 409.76 696.81 408.9 696.98 407.98 697.3 406.13 697.41 405.24 697.49 404.27 697.57 403.34 697.57 402.4 697.49 400.52 697.3 398.71 697.19 397.82 696.98 396.92 696.81 396.06 696.52 395.21 696.27 394.37 695.97 393.57 694.69 393.46 694.13 393.43 693.56 393.43 692.98 393.43 692.45 393.46 691.42 393.57 690.89 393.67 690.42 393.75 689.47 393.95 688.56 394.22 687.69 394.54 684.28 395.83 682.57 396.4 681.68 396.64 681.23 396.75 680.76 396.86" style="fill:#234294"/><polygon points="440.95 387 436.64 394.42 436.18 395.41 435.77 396.44 435.56 396.96 435.39 397.5 435.26 398.04 435.13 398.62 435 399.18 434.91 399.81 434.85 400.43 434.8 401.01 434.8 401.66 434.85 402.33 434.89 403 435 403.69 430.94 402.44 426.78 400.95 418.05 397.54 413.39 395.95 408.54 394.55 406.02 393.92 403.41 393.4 400.73 392.95 398.04 392.67 394.29 392.48 390.51 392.43 383.09 392.67 376.93 393.08 370.78 393.75 364.72 394.61 358.83 395.69 353.23 396.96 347.84 398.47 342.75 400.11 338.07 401.94 337.51 401.53 337.04 401.12 336.69 400.6 336.39 400.11 335.83 399.12 335.48 398.71 335.09 398.34 334.34 398.47 333.78 398.73 333.39 399.07 333.11 399.48 343.16 374.94 341.93 379.26 342.73 379.26 343.48 379.21 344.28 379.11 345.01 379 345.75 378.82 346.5 378.63 347.97 378.2 353.6 375.98 367.18 370.63 373.87 367.63 380.42 364.38 383.27 362.85 383.98 362.5 384.58 362.2 385.53 361.98 385.98 362.09 386.65 362.42 387.47 362.91 388.33 363.49 391.76 365.87 402.72 372.7 408.43 375.83 414.27 378.7 420.4 381.24 426.82 383.55 433.66 385.44 440.95 387" style="fill:#388fc5"/><polygon points="351.76 340.98 351.72 342.34 351.63 343.74 351.48 345.23 351.25 346.74 350.71 349.69 347.95 360.17 344.8 369.88 343.27 374.56 343.16 374.94 333.11 399.48 332.85 399.91 332.51 400.3 332.12 400.56 331.51 400.71 330.87 400.71 330.18 400.5 329.83 400.32 329.44 400.11 329.08 399.87 328.67 399.61 327.87 399.01 327.09 398.27 325.43 396.59 319.89 390 311.89 381.22 303.5 372.87 299.1 368.99 294.58 365.24 289.88 361.7 284.98 358.38 278.14 354.29 270.83 350.51 263.07 347.04 254.88 343.94 246.29 341.3 237.41 339.11 228.2 337.44 218.76 336.37 208.75 335.72 199.16 335.61 189.88 336 181.02 336.84 172.53 338.11 164.35 339.75 156.48 341.74 148.89 344.04 141.56 346.69 134.42 349.56 127.61 352.69 120.92 356.05 108.14 363.23 95.91 370.91 89.87 375.16 84.03 379.6 78.16 384.04 72.04 388.18 71.59 387.56 71.16 386.82 70.31 385.36 69.58 383.79 68.96 382.21 67.77 378.82 66.69 375.4 60.7 353.79 58.17 342.21 57.23 336.5 56.53 330.95 56.3 328.65 56.23 327.4 56.17 326.23 56.23 325 56.28 324.44 56.34 323.86 56.41 323.28 56.53 322.76 56.66 322.22 56.84 321.73 57.1 321.12 57.51 320.45 57.79 320.11 58.07 319.76 58.71 319.01 59.4 318.27 60.22 317.48 61.93 315.95 65.66 312.9 69.06 310.36 79.52 303.2 90.37 296.45 112.6 284.16 128.47 276.44 136.45 272.93 144.58 269.69 152.93 266.74 161.59 264.15 170.67 261.91 180.31 259.99 187.45 258.91 195.58 258.05 204.4 257.62 206.7 257.62 209.01 257.64 213.73 257.94 223.24 258.82 232.39 260.12 241.23 261.78 249.75 263.81 257.92 266.13 265.81 268.81 273.38 271.78 280.71 275.06 287.76 278.62 294.49 282.48 301.05 286.6 307.32 290.95 313.42 295.55 319.25 300.38 324.85 305.4 330.33 310.71 333.15 313.64 336 316.79 341.67 323.84 347.62 331.45 349 333.37 349.61 334.34 350.19 335.2 350.64 336.09 351.03 336.9 351.18 337.31 351.33 337.68 351.48 338.42 351.61 339.02 351.68 339.67 351.76 340.98" style="fill:#009fe3"/><polygon points="549.54 320.85 551.64 311.86 552.06 309.5 552.37 307.14 552.48 305.91 552.51 304.74 552.56 303.54 552.51 302.33 552.48 301.9 552.43 301.48 552.29 300.65 552.09 299.88 551.82 299.11 551.57 298.4 551.23 297.65 550.84 296.98 550.42 296.3 546.25 290.71 542.08 285.25 537.83 280.07 533.43 275.14 528.84 270.45 524.1 266.01 519.16 261.73 514.03 257.65 508.67 253.76 495.46 245.09 488.58 241.13 481.4 237.38 474.01 233.95 466.26 230.85 458.09 228.1 449.63 225.71 441.64 223.96 432.86 222.43 423.52 221.31 413.82 220.55 404.02 220.25 394.33 220.48 384.98 221.26 380.55 221.93 376.23 222.72 372.56 223.53 370.38 224.08 368.25 224.75 367.18 225.13 366.21 225.59 365.31 226.04 364.88 226.27 364.51 226.52 364.13 226.8 363.79 227.07 363.48 227.38 363.2 227.68 362.79 228.29 362.52 228.99 362.45 229.76 362.45 230.16 362.47 230.61 362.54 231.13 362.63 231.63 362.87 232.72 364.01 237.05 367.68 248.88 369.31 254.75 369.88 257.46 370.13 258.75 370.28 260.01 370.74 265.18 370.93 270.39 370.77 280.92 369.38 300.57 372.22 300.57 375.04 300.46 380.78 300 392.46 298.54 404.18 297.14 410.07 296.71 412.96 296.63 415.92 296.68 420.83 296.94 425.61 297.49 430.35 298.23 434.92 299.16 439.45 300.3 443.81 301.63 448.12 303.13 452.31 304.74 460.38 308.4 468.11 312.48 475.44 316.87 482.43 321.43 494.13 329.97 505.25 339.02 526.53 357.49 529.59 359.95 531.13 361.2 531.86 361.9 532.51 362.58 537.86 360.63 543.65 358.83 549.87 357.2 556.41 355.77 563.18 354.64 570.13 353.75 577.13 353.22 584.09 353.02 587.55 353.1 590.81 353.32 594.04 353.68 597.16 354.18 600.17 354.74 603.12 355.46 608.82 357 629.46 364.63 629.43 363.14 629.46 361.71 629.67 360.35 629.74 359.74 629.9 359.13 630.04 358.52 630.19 357.95 630.38 357.38 630.59 356.83 631 355.77 631.49 354.81 636.02 347.39 631.76 346.49 627.67 345.53 623.67 344.44 619.8 343.21 612.43 340.44 605.43 337.26 598.73 333.75 592.32 329.99 579.93 322.02 571.71 326.34 563.06 330.42 554.12 334.03 549.58 335.58 545.04 336.9 545.2 335.87 545.34 334.85 545.79 332.82 546.37 330.79 547.03 328.84 548.35 324.85 549.01 322.84 549.54 320.85" style="fill:#388fc5"/><polygon points="744.89 297.28 747.13 289.69 749.35 281.17 750.24 277.34 751.14 272.61 751.5 270.21 751.67 267.88 751.72 266.78 751.67 265.75 751.61 264.75 751.51 264.29 751.4 263.88 751.31 263.47 751.14 262.97 750.93 262.5 750.64 261.97 750.35 261.43 750.01 260.86 749.24 259.68 745.75 254.94 741.3 249.13 736.59 243.58 731.7 238.14 726.62 232.95 721.33 227.95 715.78 223.15 710.05 218.59 704.05 214.27 697.88 210.2 691.46 206.35 684.81 202.76 677.91 199.47 670.78 196.42 663.4 193.68 655.79 191.19 647.93 189.04 640.24 187.33 631.73 185.88 622.59 184.76 613.13 184.05 603.47 183.74 593.9 183.93 584.57 184.7 580.09 185.32 575.78 186.07 571.92 186.82 569.66 187.33 567.39 187.97 566.33 188.37 565.28 188.74 564.77 188.96 564.32 189.19 563.85 189.42 563.43 189.66 563.03 189.93 562.68 190.19 562.35 190.45 562.01 190.73 561.72 191.03 561.48 191.38 561.14 192.03 560.96 192.73 560.91 193.16 560.88 193.58 560.88 194.01 560.88 194.47 560.91 194.97 560.99 195.47 561.19 196.5 561.43 197.56 562.06 199.83 565.03 208.41 567.39 217.11 568.31 221.39 568.69 223.44 568.91 225.43 569.49 233.16 569.63 240.85 569.38 248.38 568.91 255.51 568.48 260.09 568.31 262.31 568.29 263.38 568.31 264.48 573.95 264.29 579.52 263.83 590.51 262.46 601.27 261.09 606.6 260.71 611.87 260.59 617.11 260.82 622.17 261.28 627.1 261.94 631.92 262.8 636.52 263.88 641.06 265.14 645.44 266.55 649.72 268.14 653.83 269.86 657.89 271.72 665.63 275.71 673.04 280.12 680.15 284.75 693.79 294.56 706.71 305.04 719.23 316.38 722.4 319.11 725.69 321.7 729.05 324.05 730.83 325.15 732.62 326.19 734.61 322.99 736.42 319.61 738.04 316.19 739.58 312.6 742.33 305.11 744.89 297.28" style="fill:#234294"/><polygon points="558.47 253.46 558.2 239.12 557.9 235.41 557.4 231.85 557.11 230.17 556.72 228.56 556.3 227.07 555.81 225.71 555.61 225.28 555.35 224.83 554.8 223.84 553.36 221.65 550.1 217.36 545.96 212.18 541.65 207.26 537.22 202.57 532.59 198.05 527.81 193.75 522.87 189.62 512.52 181.87 503.56 175.98 494.21 170.64 484.46 165.86 474.21 161.63 463.44 158.01 452.12 154.9 440.16 152.47 427.54 150.56 418.24 149.73 409.26 149.38 400.56 149.56 392.16 150.17 383.94 151.21 375.9 152.58 360.14 156.24 350.97 158.65 346.51 159.95 342.16 161.4 340.06 162.21 338 163.08 335.98 163.99 334.02 165 332.14 166.1 330.35 167.28 328.64 168.53 327.85 169.21 327.06 169.95 329.86 172.9 332.69 176.02 338.15 182.78 343.35 189.96 348.19 197.36 351.25 203.1 352.1 204.59 352.51 205.27 352.94 205.89 353.33 206.42 353.74 206.88 354.12 207.26 354.47 207.54 355.04 207.79 355.76 207.95 356.14 208.03 356.56 208.05 356.99 208.05 357.43 208.09 358.4 208.05 359.43 208.03 361.61 207.76 366.11 206.91 369.96 206.03 377.75 204.25 385.19 202.76 389.13 202.14 393.34 201.73 402.19 201.17 410.99 201.17 418.89 201.57 435.77 203.28 451.41 205.81 458.79 207.41 465.88 209.29 472.66 211.39 479.16 213.78 488.88 218.03 498.05 222.71 506.61 227.92 510.7 230.65 514.67 233.53 518.46 236.53 522.12 239.69 525.68 242.92 529.1 246.3 532.4 249.82 535.52 253.49 538.59 257.27 541.48 261.19 548.74 271.96 552.51 277.51 556.68 282.98 557.29 279.58 557.75 276.07 558.27 268.72 558.47 253.46" style="fill:#388fc5"/><polygon points="307.95 164 301.31 158.05 294.11 152.28 286.4 146.83 278.14 141.74 273.88 139.42 269.47 137.19 264.98 135.12 260.35 133.21 255.63 131.56 250.78 130.01 245.85 128.72 240.84 127.62 234.28 126.51 227.43 125.71 223.93 125.43 220.32 125.33 219.45 125.33 218.54 125.33 216.74 125.35 213.11 125.52 200.85 126.81 189.19 128.76 178.18 131.33 167.76 134.56 162.7 136.39 157.86 138.39 153.08 140.52 148.48 142.78 144.02 145.19 139.66 147.74 135.45 150.41 131.35 153.24 127.38 156.17 123.53 159.27 116.14 165.76 109.19 172.74 102.75 180.16 96.64 187.98 90.95 196.22 85.63 204.82 80.7 213.78 89.03 207.35 97.75 201.18 106.82 195.39 116.38 190 126.31 185.03 136.69 180.58 147.54 176.65 158.84 173.24 168.03 170.99 177.91 169.08 188.26 167.56 198.9 166.49 209.67 165.99 220.44 166.13 225.75 166.49 231 167.05 236.1 167.79 241.15 168.77 255.73 172.44 269.51 176.88 282.51 181.83 294.86 187.24 308.74 194.35 321.88 202.02 346.44 217.94 346.88 218.18 347.29 218.45 347.69 218.71 348.11 219.02 349.76 220.37 350.58 220.99 350.98 221.26 351.37 221.54 351.78 221.77 352.15 221.92 352.57 222.07 352.95 222.13 343.27 206.77 332.61 191.76 326.88 184.47 320.84 177.35 314.54 170.53 307.95 164" style="fill:#009fe3"/><polygon points="500 121.66 492 115.24 483.67 109.21 474.94 103.69 470.41 101.12 465.7 98.76 460.88 96.52 455.87 94.51 450.66 92.72 445.24 91.08 439.63 89.69 433.74 88.6 427.64 87.67 421.29 87.06 416.89 86.89 414.76 86.84 412.62 86.89 408.46 87.06 404.46 87.38 389.67 89.47 383.26 90.68 377.13 92.18 371.31 93.94 365.7 95.92 360.26 98.09 354.94 100.47 344.64 105.54 338.03 109.12 331.59 112.95 325.4 117.01 319.47 121.36 313.82 125.97 308.51 130.93 306 133.53 303.56 136.23 301.25 139.04 299 141.94 306.1 147.36 313.34 152.67 337.08 143.03 349.32 138.41 362.08 134.26 375.39 130.81 382.34 129.42 389.47 128.3 396.88 127.47 404.54 126.96 412.48 126.81 420.69 127.04 424.36 127.27 427.98 127.7 435.15 128.84 448.73 131.81 455.95 133.73 462.99 135.93 469.9 138.38 476.62 141.05 489.57 146.97 501.96 153.54 513.71 160.66 524.94 168.01 545.96 183.09 541.36 174.27 536.36 165.79 531.04 157.74 525.4 149.95 519.44 142.5 513.24 135.29 500 121.66" style="fill:#388fc5"/><polygon points="278.43 499.7 275.3 499.7 272.17 499.7 267.23 499.23 262.55 498.54 258 497.7 253.63 496.7 249.39 495.6 245.26 494.32 237.38 491.53 206.87 478.83 203.15 478.1 199.22 477.53 195.2 477.08 191.08 476.82 182.61 476.57 174 476.85 165.56 477.62 157.55 478.76 150.15 480.28 146.78 481.15 143.61 482.12 139.01 477.69 134.67 473.09 126.05 463.64 133.09 459.39 140.55 455.46 144.44 453.63 148.44 451.96 152.58 450.42 156.87 449.1 161.24 447.94 165.8 447.02 170.49 446.33 175.39 445.9 180.42 445.77 185.66 445.9 191.08 446.42 196.68 447.25 199.06 447.73 201.33 448.26 203.52 448.85 205.69 449.55 209.77 451.07 213.73 452.83 217.51 454.78 221.16 456.85 228.32 461.27 235.79 465.7 239.58 467.7 243.48 469.4 245.5 470.16 247.57 470.85 249.74 471.51 251.96 472.06 254.25 472.53 256.66 472.94 259.13 473.26 261.74 473.49 273.94 473.93 279.76 473.8 282.55 473.51 285.29 473.18 286.33 472.99 287.32 472.76 289.29 472.2 293.27 470.85 295.37 470.2 296.39 469.93 297.52 469.71 298.67 469.52 299.79 469.36 301.03 469.28 301.64 469.28 302.29 469.28 303.32 472.39 303.59 473.18 303.78 473.93 303.96 474.75 304.02 475.17 304.1 475.56 304.22 477.19 304.24 478.76 304.22 480.25 304.1 481.71 303.88 483.02 303.63 484.33 303.46 484.99 303.3 485.59 303.09 486.16 302.91 486.73 302.67 487.31 302.4 487.84 302.12 488.36 301.87 488.91 301.57 489.42 301.26 489.92 300.6 490.83 299.88 491.71 299.11 492.53 298.3 493.32 297.38 494.02 296.49 494.71 295.5 495.34 294.47 495.89 293.42 496.45 292.32 496.93 291.18 497.35 290.04 497.77 288.82 498.11 286.35 498.72 283.78 499.19 281.13 499.51 278.43 499.7" style="fill:#009fe3"/><polygon points="53.88 298.77 53.88 289.95 53.88 281.17 54.5 281.03 54.83 280.72 54.97 280.37 55.03 279.99 55.2 279.47 55.37 278.91 55.59 277.76 55.92 275.38 56.54 270.45 58.29 261.46 60.43 252.85 61.48 248.33 62.14 246.01 62.45 245.02 62.66 244.6 62.79 244.22 63.13 243.57 63.4 243.25 63.69 242.93 63.98 242.57 64.32 242.22 65.06 241.54 65.9 240.82 66.8 240.09 68.79 238.69 75.94 234.07 98.03 220.36 109.2 214.05 120.66 208.14 131.69 202.9 143 198.13 154.68 193.93 166.84 190.47 173.09 189.04 179.56 187.84 186.17 186.83 193.02 186.1 200.09 185.69 207.37 185.49 214.88 185.6 222.67 186.07 234.7 187.37 246.3 189.35 257.44 191.98 268.15 195.23 278.41 198.97 288.16 203.21 297.4 207.86 306.14 212.9 313.85 217.79 321.27 222.98 328.29 228.44 334.98 234.16 341.25 240.17 347.12 246.47 352.5 253.08 357.47 260.01 359.57 273.55 360.99 288.63 361.34 296.45 361.34 304.24 360.95 311.9 360.15 319.35 353.39 310.46 346.33 302.02 338.9 294 331.07 286.4 322.84 279.31 314.08 272.65 304.77 266.52 294.86 260.91 287.2 257.1 279.19 253.57 270.77 250.33 262.04 247.42 252.95 244.91 243.49 242.79 233.69 241.15 223.54 240.02 215.37 239.48 207.41 239.28 199.72 239.37 192.19 239.77 184.88 240.36 177.75 241.24 170.84 242.39 164.09 243.72 151.14 247.02 138.88 251.01 127.22 255.56 116.19 260.58 102.02 268.12 88.28 276.57 62.79 294.29 60.52 295.96 59.31 296.75 58.1 297.52 57.52 297.81 56.92 298.13 56.34 298.4 55.8 298.57 55.28 298.74 54.77 298.8 54.28 298.8 53.88 298.77" style="fill:#009fe3"/><polygon points="757.11 234.68 757 235.43 756.89 236.25 756.79 237.92 756.7 241.35 756.61 242.99 756.52 243.84 756.43 244.6 756.25 245.37 756.11 246.13 755.9 246.81 755.61 247.46 740.3 225.71 732.2 215.66 727.92 210.87 723.39 206.34 718.63 201.98 713.62 197.87 708.38 193.96 702.88 190.27 697.14 186.82 691.14 183.62 684.95 180.64 678.51 177.89 671.84 175.42 664.93 173.17 657.78 171.18 650.39 169.44 642.83 168.01 635.02 166.79 627 165.87 618.69 165.19 610.12 164.88 607.9 164.85 605.65 164.85 601.27 164.96 592.45 165.56 588.24 166.07 584.1 166.67 576.59 168.07 569.21 169.65 560.85 171.62 558.63 171.94 557.56 172.06 556.56 172.14 556.07 172.16 555.61 172.14 555.19 172.14 554.76 172.09 554.04 171.98 553.39 171.75 553.01 171.49 552.65 171.02 552.29 170.45 551.91 169.81 550.42 166.67 547.67 162.04 544.72 157.55 538.5 148.93 525.68 133.26 526.62 132.42 527.6 131.62 528.63 130.86 529.73 130.16 530.83 129.49 531.95 128.83 534.28 127.61 536.66 126.55 539.12 125.55 544.15 123.76 560.53 118.83 569.21 116.78 578.16 115.06 587.38 113.76 596.86 112.95 606.62 112.69 616.64 113.02 626.96 113.95 636.95 115.35 646.67 117.2 656.01 119.48 665.05 122.2 673.77 125.28 682.18 128.76 690.27 132.57 698.06 136.77 705.52 141.29 712.65 146.09 719.47 151.22 725.98 156.56 732.2 162.2 738.11 168.05 743.66 174.12 750.24 181.98 751.76 184.07 753.09 186.13 753.71 187.14 754.21 188.1 754.67 189.04 755.01 189.93 755.35 190.99 755.61 192.07 755.9 193.21 756.07 194.4 756.38 196.79 756.59 199.31 757.11 209.31 757.17 221.93 757.11 234.68" style="fill:#234294"/><polygon points="603.51 50.41 613.92 50.41 624.38 50.41 635.92 52.64 646.72 55.38 651.9 56.98 656.9 58.74 661.73 60.73 666.42 62.93 673.09 66.47 679.46 70.36 685.53 74.47 691.42 78.85 696.99 83.53 702.38 88.35 707.54 93.48 712.46 98.79 717.19 104.28 721.73 109.93 730.25 121.77 738.17 134.19 745.44 146.99 744.73 147.12 744.07 146.77 743.1 145.79 733.08 138.34 722.81 131.2 704.52 119.68 694.89 114.25 684.89 109.16 674.46 104.48 663.65 100.31 652.48 96.76 640.78 93.94 632.27 92.48 623.43 91.53 614.38 91.1 612.1 91.1 611.52 91.1 610.94 91.1 609.8 91.1 605.25 91.18 596.16 91.69 587.28 92.65 578.63 93.97 570.39 95.74 559.1 98.76 547.89 102.31 536.94 106.3 526.23 110.62 519.14 114.02 516.98 114.94 515.01 115.67 514.57 115.82 514.13 115.97 513.71 116.08 513.29 116.16 512.58 116.28 511.96 116.28 511.44 116.2 510.99 116.08 510.5 115.85 510.05 115.59 509.61 115.28 509.1 114.91 508.18 114.11 506.42 112.39 505.59 111.57 505.2 111.23 504.76 110.93 500.93 108.25 497.32 105.85 499.52 102.92 501.81 100.13 504.19 97.43 506.73 94.81 509.28 92.3 511.96 89.9 517.52 85.3 523.38 80.99 529.45 76.95 542.05 69.46 548.69 65.99 555.65 62.87 562.86 59.99 570.39 57.48 578.22 55.27 586.31 53.36 594.76 51.7 603.51 50.41" style="fill:#234294"/><path d="M824.91,620.55l1.75-.75,1.6-.84,1.53-.88,1.42-.95,1.32-1,.63-.47.6-.52,1.1-1.1,1-1.08.45-.63.45-.6.39-.65.37-.63.35-.69.3-.69.32-.69.22-.75.26-.73.15-.8.22-.8.11-.8.13-.84.06-.84.06-1.81,0-1.27-.17-1.27-.06-.6-.11-.6-.13-.54-.13-.58-.15-.54-.22-.54-.41-1-.24-.45-.26-.5-.28-.47-.3-.45-.65-.82-.71-.86-.37-.39-.41-.39-.8-.71-.84-.73-.93-.65-1-.6-1.06-.58-1-.52-1.08-.47-1.12-.45-1.08-.37-1.14-.32-1.12-.3-1.12-.24-1.21-.19-2.5-.3-2.74-.19-6.15-.19H777.95V648.8h19.13V624.65H806l20.33,24.15h23.53Zm-5.11-16.82-.06.67-.09.6-.09.58-.11.54-.17.5-.17.45-.26.47-.22.41-.32.37-.3.39-.34.37-.37.41-.43.39-.47.35-.47.32-.54.35-.56.32-.63.26-.6.28-1.38.35-.71.17-.75.11-1.66.17-1.85.13-4.2.09h-6V595h7l3.23,0,2.85.09,1.27.11,1.16.22.58.13.52.11.52.13.52.19.65.28.67.26.56.34.5.3.5.39.39.39.37.43.32.41.26.45.24.45.22.5.17.56.11.5.11.58.06.56Z" style="fill:#040505"/><polygon points="764.89 648.81 710.91 648.81 710.91 582.87 764.89 582.87 764.89 595.64 730.03 595.64 730.03 607.02 762.38 607.02 762.38 619.74 730.03 619.74 730.03 636.06 764.89 636.06 764.89 648.81" style="fill:#040505"/><polygon points="702.38 595.65 679.09 595.65 679.09 648.82 659.84 648.82 659.84 595.65 636.53 595.65 636.53 582.87 702.38 582.87 702.38 595.65" style="fill:#040505"/><polygon points="628.99 629.45 628.95 630.55 628.87 631.58 628.74 632.65 628.57 633.69 628.29 634.7 628.14 635.18 627.98 635.66 627.82 636.16 627.64 636.64 627.21 637.59 627 638.09 626.75 638.52 626.23 639.4 625.65 640.26 625.04 641.09 624.69 641.48 624.35 641.87 623.63 642.64 622.87 643.31 622.02 644.01 621.06 644.7 620.07 645.28 619.04 645.89 617.96 646.49 616.83 646.98 615.69 647.46 614.47 647.9 613.21 648.29 611.88 648.66 610.47 649 608.96 649.23 607.4 649.47 604.08 649.76 600.42 649.84 595.41 649.76 590.67 649.51 586.38 649.11 582.64 648.58 582.64 635.22 584.48 635.22 586.95 635.99 589.47 636.69 590.12 636.85 590.84 637.01 591.63 637.13 592.46 637.23 594.21 637.36 596.13 637.38 598.62 637.32 599.76 637.23 600.79 637.09 601.8 636.9 602.24 636.82 602.65 636.69 603.09 636.6 603.51 636.43 603.89 636.3 604.22 636.16 604.91 635.84 605.55 635.49 606.14 635.09 606.68 634.7 607.13 634.24 607.58 633.72 607.97 633.23 608.26 632.69 608.54 632.16 608.77 631.58 609 631.01 609.18 630.4 609.29 629.84 609.46 629.19 609.55 628.57 609.57 627.92 609.68 624.97 609.73 621.33 609.73 595.03 592.66 595.03 592.66 582.87 628.99 582.87 628.99 629.45" style="fill:#040505"/><polygon points="577.44 648.81 533.77 648.81 533.77 637.13 545.98 637.13 545.98 594.57 533.77 594.57 533.77 582.87 577.44 582.87 577.44 594.57 565.24 594.57 565.24 637.13 577.44 637.13 577.44 648.81" style="fill:#040505"/><path d="M525.78,627l0-.41,0-.37-.09-.75-.17-.73-.19-.71-.19-.71-.24-.67-.28-.65-.35-.63-.34-.63-.39-.6-.41-.54-.47-.54-1-1.08-.52-.52-.58-.47-.6-.43-.63-.43-.65-.41-.65-.39-1.42-.69-1.47-.65-.84-.28-.78-.24-1.68-.47L510,612.7v-.34l1.27-.56,1.16-.58,1.14-.6,1-.71,1-.78.88-.78.41-.39.45-.41.37-.47.32-.43.71-.93.3-.47.28-.47.24-.5.22-.52.24-.52.15-.5.22-.56.15-.56.11-.52.09-.58.09-.54,0-.6.06-.58v-1.12l-.06-.5,0-.47,0-.5-.06-.47-.13-.47-.06-.47-.13-.45-.28-.93-.39-.88-.41-.84-.24-.39-.26-.39-.26-.43-.28-.39-.32-.39-.32-.32-.3-.34-.37-.37-.39-.32-.39-.34-.82-.63-.88-.56-.95-.52-1.06-.54-1-.43-1-.39-2.09-.65-2-.54-1-.17-1.08-.17-2.35-.22-3-.17-7.81-.15H462v66h32.56l3.9-.06,3.51-.26,3.17-.37,1.44-.28,1.38-.26,1.29-.37,1.29-.37,1.27-.45,1.21-.52,1.16-.52,1.21-.6,1.14-.65,1.12-.69.91-.67.88-.69.82-.71.78-.71.73-.84.67-.8.63-.93.58-.88.5-1,.45-.95.39-1,.15-.56.15-.56.22-1,.13-.56.06-.58.09-1.14,0-1.21v-.8Zm-44.64-32H488l3.8.06,1.49.09,1.36.15.69.09.6.13.56.17.54.17.56.19.52.24.5.26.41.26.41.37.32.34.3.34.26.41.24.43.17.39.17.41.11.41.11.39.11.41,0,.43V602l0,.54-.11.5-.09.45-.09.45-.17.5-.15.41-.19.41-.22.37-.26.39-.34.34-.43.32-.43.32-.52.32-.56.3-.63.28-.52.13-.5.19-.54.09-.63.13-.65.15-.71,0-1.53.15-3.51,0-4.27,0h-3Zm24.71,34,0,.58-.13.52-.09.58-.17.47-.17.5-.24.5-.28.5-.32.43-.34.43-.43.41-.52.39-.52.35-.6.32-.65.35-.73.22-.75.28-.78.24-.78.17-.78.17-.82.17-.82.06-.84.06-.88,0h-4.66l-7,0h-1.42V620.29h4.2l4.25,0,4,0,1.85,0,1.68.11,1.44.17.63.11.58.17.82.24.73.22.67.32.63.26.54.32.5.39.45.39.35.39.34.43.28.52.22.52.17.63.17.6.11.69.09.73Z" style="fill:#040505"/><polygon points="451.81 595.65 417.47 595.65 417.47 607.93 449.28 607.93 449.28 620.68 417.47 620.68 417.47 648.82 398.3 648.82 398.3 582.87 451.81 582.87 451.81 595.65" style="fill:#040505"/><polygon points="385.25 648.81 331.27 648.81 331.27 582.87 385.25 582.87 385.25 595.64 350.39 595.64 350.39 607.02 382.75 607.02 382.75 619.74 350.39 619.74 350.39 636.06 385.25 636.06 385.25 648.81" style="fill:#040505"/><path d="M319.63,613.91,319.5,612l-.22-1.81-.28-1.83-.35-1.75-.45-1.7-.52-1.64-.58-1.62-.69-1.55-.75-1.49-.84-1.47-.93-1.36-1-1.34-1.08-1.29-1.21-1.23-1.21-1.19-1.34-1.08-1.38-1-1.4-1-1.49-.91-1.57-.8-1.6-.8-1.68-.67-1.7-.6-1.81-.54-1.88-.5-1.92-.39-2-.3-2-.26-2.07-.22-2.16-.09-2.2-.06-2.22.06-2.2.09-2.07.22-2,.26-2,.3-1.92.39-1.83.5-1.79.54-1.77.6-1.68.67-1.6.8-1.57.8-1.49.91-1.4,1-1.38,1L253,590.73l-1.27,1.19-1.16,1.23-1,1.29-1,1.34-.91,1.36-.86,1.47-.75,1.49-.69,1.55-.3.75-.32.86-.47,1.64-.47,1.7-.65,3.58-.17,1.81-.11,1.92,0,2,0,1.92.11,1.92.17,1.83.35,1.79.3,1.77.47,1.66.47,1.66.32.8.3.8.69,1.53.75,1.49.86,1.44.91,1.4,1,1.34,1,1.27,1.16,1.23,1.27,1.16,1.29,1.16,1.38,1,1.4,1,1.49.93,1.57.8,1.6.75,1.68.67,1.77.67,1.79.54,1.83.43,1.92.41,2,.32,2,.28,2.07.22,2.2,0,2.22,0,2.2,0,2.18,0,2.09-.22,2-.28,2-.32,1.92-.41,1.88-.43,1.79-.54,1.75-.67,1.68-.67,1.6-.75,1.55-.8,1.51-.93,1.4-1,1.38-1,2.59-2.33,1.12-1.23,1.1-1.27,1-1.34.93-1.4.84-1.44.75-1.49.69-1.53.63-1.6.47-1.66.45-1.66.35-1.77.28-1.79.22-1.83.13-1.92,0-1.92Zm-20,1.92-.06,2.65-.28,2.54-.22,1.16-.22,1.16-.26,1.06-.32,1.08-.37,1-.37,1-.47.93-.5.93-.52.88-.63.82-.6.8-.69.78-.67.65-.63.56-.73.58-.69.5-.39.22-.39.26-.75.43-.8.34-.84.35-.84.32-.84.26-.88.22-.88.17-.86.15-.93.06-.91.06h-1.85l-.91-.06-.88-.06-.93-.15-.84-.17-.86-.22-.86-.24-.84-.3-.8-.35-.43-.15-.39-.24-.8-.37-.37-.22-.34-.28-.39-.22-.32-.28-.73-.54-.69-.58-.58-.65-.6-.67-.63-.73-.54-.75-.54-.82-.45-.86-.47-.93-.43-.95-.39-1-.34-1.08-.35-1.1-.24-1.19-.22-1.21-.17-1.27-.13-1.32-.09-2.85,0-1.44.06-1.38.11-1.32.17-1.32.22-1.23.28-1.19.34-1.14.35-1.12.39-1,.47-1.06.47-.88.47-.88.52-.84.56-.8.58-.69.6-.69.69-.58.73-.6.67-.54.8-.5.3-.26.39-.19.78-.43.39-.19.41-.15.8-.34.8-.28.86-.24.84-.17.82-.15.88-.11.88-.13.86,0,.93,0,.93,0,.86,0,.47.06.43.06.86.11.84.19.88.17.82.24.84.3.82.32.8.37.8.43.71.45.39.22.34.28.69.54.69.6.32.34.32.3.6.65.6.73.56.78.28.37.24.43.45.88.5.91.43,1,.37,1,.39,1.06.35,1.1.24,1.19.24,1.27.15,1.25.17,1.36.06,1.4Z" style="fill:#040505"/><polygon points="238.57 648.81 184.73 648.81 184.73 582.87 203.99 582.87 203.99 636.06 238.57 636.06 238.57 648.81" style="fill:#040505"/><polygon points="139.67 648.81 85.69 648.81 85.69 582.87 139.67 582.87 139.67 595.64 104.84 595.64 104.84 607.02 137.16 607.02 137.16 619.74 104.84 619.74 104.84 636.06 139.67 636.06 139.67 648.81" style="fill:#020202"/><path d="M74,613.57l-.24-2.26-.34-2.22-.5-2.11-.26-1.06-.34-1-.32-1-.45-.93-.86-1.9-1.08-1.81-1.14-1.73-1.25-1.64-1.38-1.53-1.47-1.47-1.6-1.29-1.64-1.32-1.79-1.21-1.9-1.06-1.12-.6-1.27-.58-1.27-.5-1.34-.47L49.55,585l-3.15-.71-3.51-.63-3.75-.41L35,583l-4.44-.13h-27v66H29.86l4.33-.06,4-.22,3.73-.39,3.39-.52,1.62-.26,1.6-.41,1.55-.41,1.49-.5,1.49-.54,1.4-.56,1.44-.67,1.42-.67,1.75-1,1.68-1.14,1.64-1.25L64,638.82l1.42-1.42,1.4-1.51,1.29-1.68,1.27-1.79.54-.88.56-1,.5-.95.45-.95.41-1,.43-1,.34-1,.3-1,.3-1,.24-1.08.17-1.06.19-1.06.11-1.14.11-1.1.06-2.24Zm-19.9,3.82L54,618.91l-.17,1.51-.26,1.4-.17.69-.17.63-.43,1.32-.22.6-.26.56-.28.63-.32.52-.3.58-.34.54-.37.5-.39.52-.39.52-.45.47-.41.45-.5.43-.5.47-.52.41-1.1.8-.56.41-.6.32-1.27.73-.75.34-.78.3-1.55.56-1.57.47-1.6.28-1.85.28-2.29.17-6,.13H22.81V595.22h4.83l5.43.09,2.13.15,1.73.22,1.57.26,1.49.43,1.53.43,1.47.65,1.4.67,1.34.73.6.41.58.41,1.1.86,1,.95.45.5.45.5.41.52.39.54.41.58.32.54.37.63.28.6.28.6.26.6.24.65.22.65.19.71.19.67.3,1.42.17,1.47.13,1.55.06,1.6Z" style="fill:#060707"/><polygon points="844.48 568.89 843.53 569.23 842.47 569.58 839.87 570.22 838.41 570.49 837 570.73 835.56 570.83 834.12 570.87 832.49 570.83 831.73 570.78 831.01 570.66 830.28 570.54 829.56 570.37 828.87 570.2 828.22 569.98 827.57 569.79 826.94 569.52 826.38 569.19 825.81 568.89 825.24 568.55 824.74 568.22 824.24 567.78 823.76 567.37 823.3 566.92 822.87 566.46 822.49 565.96 822.1 565.45 821.77 564.93 821.45 564.36 821.21 563.78 820.93 563.22 820.74 562.61 820.54 561.94 820.35 561.32 820.24 560.62 820.1 559.89 820.04 559.19 820 558.43 820 557.67 820 556.95 820.04 556.26 820.1 555.55 820.24 554.89 820.38 554.24 820.54 553.58 820.74 552.98 820.95 552.36 821.21 551.76 821.5 551.22 821.81 550.65 822.15 550.12 822.49 549.63 822.92 549.12 823.32 548.62 823.77 548.16 824.27 547.74 824.79 547.31 825.32 546.95 825.85 546.6 826.42 546.28 827.03 545.99 827.68 545.72 828.32 545.44 828.99 545.27 829.66 545.08 830.39 544.91 831.12 544.81 831.9 544.68 832.67 544.64 834.33 544.58 835.59 544.58 836.85 544.68 838.04 544.81 839.2 545.04 839.79 545.15 840.4 545.31 841.02 545.48 841.67 545.7 842.99 546.18 844.37 546.83 844.37 552.73 843.6 552.73 843.04 552.28 842.19 551.73 841.28 551.15 840.37 550.59 839.87 550.34 839.3 550.12 838.69 549.89 838.04 549.68 837.36 549.5 836.62 549.39 835.91 549.3 835.16 549.3 834.7 549.3 834.3 549.3 833.87 549.35 833.45 549.44 833.07 549.5 832.67 549.58 832.31 549.68 831.92 549.8 831.24 550.09 830.54 550.47 829.93 550.88 829.32 551.36 828.77 551.91 828.32 552.52 828.13 552.86 827.95 553.21 827.75 553.54 827.61 553.97 827.44 554.33 827.3 554.77 827.18 555.18 827.1 555.65 827.03 556.12 827 556.58 826.94 557.05 826.94 557.61 826.94 558.09 827 558.6 827.03 559.09 827.1 559.55 827.18 560 827.28 560.46 827.37 560.9 827.52 561.32 827.68 561.69 827.84 562.06 828.02 562.39 828.26 562.76 828.43 563.1 828.72 563.41 828.95 563.69 829.25 564.02 829.5 564.3 829.88 564.52 830.16 564.78 830.5 564.97 830.91 565.15 831.27 565.34 831.65 565.55 832.06 565.67 832.49 565.8 832.95 565.91 833.41 566 833.91 566.08 834.41 566.15 834.89 566.17 835.44 566.24 835.98 566.24 836.39 566.24 836.81 566.24 837.27 566.17 837.7 566.15 837.7 561.18 832.49 561.18 832.49 556.42 844.48 556.42 844.48 568.89" style="fill:#020202"/><polygon points="814.89 570.36 808.43 570.36 797.43 552.98 797.43 570.36 791.3 570.36 791.3 545.08 799.26 545.08 808.75 559.56 808.75 545.08 814.89 545.08 814.89 570.36" style="fill:#020202"/><polygon points="785.8 570.36 770.62 570.36 770.62 565.88 774.87 565.88 774.87 549.55 770.62 549.55 770.62 545.08 785.8 545.08 785.8 549.55 781.58 549.55 781.58 565.88 785.8 565.88 785.8 570.36" style="fill:#020202"/><polygon points="765.78 568.89 764.86 569.23 763.74 569.58 761.18 570.22 759.74 570.49 758.29 570.73 756.88 570.83 755.44 570.87 753.82 570.83 753.05 570.78 752.3 570.66 751.57 570.54 750.89 570.37 750.19 570.2 749.54 569.98 748.89 569.79 748.28 569.52 747.69 569.19 747.14 568.89 746.57 568.55 746.03 568.22 745.54 567.78 745.08 567.37 744.62 566.92 744.2 566.46 743.78 565.96 743.43 565.45 743.11 564.93 742.77 564.36 742.53 563.78 742.25 563.22 742.02 562.61 741.83 561.94 741.68 561.32 741.57 560.62 741.44 559.89 741.36 559.19 741.34 558.43 741.34 557.67 741.34 556.95 741.36 556.26 741.44 555.55 741.57 554.89 741.68 554.24 741.83 553.58 742.02 552.98 742.25 552.36 742.53 551.76 742.77 551.22 743.11 550.65 743.43 550.12 743.79 549.63 744.2 549.12 744.65 548.62 745.1 548.16 745.58 547.74 746.12 547.31 746.61 546.95 747.19 546.6 747.74 546.28 748.37 545.99 748.97 545.72 749.63 545.44 750.32 545.27 750.99 545.08 751.72 544.91 752.45 544.81 753.21 544.68 754.01 544.64 755.65 544.58 756.9 544.58 758.14 544.68 759.36 544.81 760.53 545.04 761.12 545.15 761.74 545.31 762.33 545.48 762.96 545.7 764.27 546.18 765.7 546.83 765.7 552.73 764.92 552.73 764.31 552.28 763.52 551.73 762.55 551.15 761.7 550.59 761.14 550.34 760.6 550.12 759.99 549.89 759.32 549.68 758.63 549.5 757.96 549.39 757.24 549.3 756.45 549.3 756.03 549.3 755.63 549.3 755.19 549.35 754.78 549.44 754.35 549.5 753.99 549.58 753.61 549.68 753.25 549.8 752.52 550.09 751.85 550.47 751.22 550.88 750.65 551.36 750.11 551.91 749.67 552.52 749.46 552.86 749.24 553.21 749.09 553.54 748.89 553.97 748.74 554.33 748.63 554.77 748.53 555.18 748.43 555.65 748.37 556.12 748.32 556.58 748.28 557.61 748.28 558.09 748.32 558.6 748.37 559.09 748.39 559.55 748.48 560 748.61 560.46 748.71 560.9 748.85 561.32 749.01 561.69 749.17 562.06 749.35 562.39 749.54 562.76 749.76 563.1 750.01 563.41 750.27 563.69 750.54 564.02 750.83 564.3 751.14 564.52 751.49 564.78 751.84 564.97 752.18 565.15 752.55 565.34 752.98 565.55 753.4 565.67 753.82 565.8 754.28 565.91 754.74 566 755.19 566.08 755.7 566.15 756.22 566.17 756.78 566.24 757.3 566.24 757.72 566.24 758.14 566.24 758.61 566.17 758.99 566.15 758.99 561.18 753.82 561.18 753.82 556.42 765.78 556.42 765.78 568.89" style="fill:#020202"/><polygon points="737.35 570.36 722.15 570.36 722.15 565.88 726.44 565.88 726.44 549.55 722.15 549.55 722.15 545.08 737.35 545.08 737.35 549.55 733.13 549.55 733.13 565.88 737.35 565.88 737.35 570.36" style="fill:#020202"/><polygon points="716.7 570.36 710.25 570.36 699.25 552.98 699.25 570.36 693.11 570.36 693.11 545.08 701.1 545.08 710.56 559.56 710.56 545.08 716.7 545.08 716.7 570.36" style="fill:#020202"/><polygon points="687.49 570.36 668.73 570.36 668.73 545.08 687.49 545.08 687.49 549.96 675.37 549.96 675.37 554.32 686.61 554.32 686.61 559.18 675.37 559.18 675.37 565.46 687.49 565.46 687.49 570.36" style="fill:#020202"/><path d="M657.12,559.51l.63-.32.54-.28.52-.37.5-.32.43-.37.45-.45.39-.39.37-.41.32-.47.26-.52.19-.5.22-.56.15-.58.09-.6.06-.69,0-.67,0-.47,0-.5-.11-.45-.06-.43-.11-.41-.15-.39-.19-.39-.19-.34-.22-.35-.24-.3-.26-.28-.28-.28-.3-.28-.37-.26-.32-.24-.34-.22-.37-.19-.37-.17-.37-.17-.39-.15-.39-.11-.41-.13-.37-.11-.43-.09-.86-.11-1-.09-2.16,0H640.78v25.27h6.68v-9.27h3.08l7.07,9.27h8.17Zm-1.81-6.21-.06.47-.24.73-.41.6-.26.32-.37.26-.37.24-.41.19-.52.13-.47.13-.58,0-.65.06-1.51,0h-2v-6.79H651l.93,0,.47,0,.43.09.71.22.47.19.37.26.28.28.26.35.15.34.15.37.06.47Z" style="fill:#020202"/><polygon points="635.16 570.36 616.42 570.36 616.42 545.08 635.16 545.08 635.16 549.96 623.05 549.96 623.05 554.32 634.28 554.32 634.28 559.18 623.05 559.18 623.05 565.46 635.16 565.46 635.16 570.36" style="fill:#020202"/><polygon points="612.67 545.08 603.2 570.36 595.72 570.36 586.26 545.08 593.26 545.08 599.53 562.82 605.83 545.08 612.67 545.08" style="fill:#020202"/><polygon points="585.09 570.36 566.38 570.36 566.38 545.08 573.06 545.08 573.06 565.46 585.09 565.46 585.09 570.36" style="fill:#020202"/><polygon points="560.92 570.36 545.72 570.36 545.72 565.88 549.97 565.88 549.97 549.55 545.72 549.55 545.72 545.08 560.92 545.08 560.92 549.55 556.68 549.55 556.68 565.88 560.92 565.88 560.92 570.36" style="fill:#020202"/><polygon points="541.26 570.36 522.49 570.36 522.49 545.08 541.26 545.08 541.26 549.96 529.15 549.96 529.15 554.32 540.43 554.32 540.43 559.18 529.15 559.18 529.15 565.46 541.26 565.46 541.26 570.36" style="fill:#040505"/><polygon points="517.84 570.36 496.03 570.36 496.03 565.62 508.98 549.96 496.68 549.96 496.68 545.08 517.16 545.08 517.16 549.88 504.2 565.46 517.84 565.46 517.84 570.36" style="fill:#040505"/><polygon points="478.96 570.36 472.5 570.36 461.45 552.98 461.45 570.36 455.37 570.36 455.37 545.08 463.33 545.08 472.8 559.56 472.8 545.08 478.96 545.08 478.96 570.36" style="fill:#040505"/><polygon points="449.76 570.36 430.95 570.36 430.95 545.08 449.76 545.08 449.76 549.96 437.6 549.96 437.6 554.32 448.87 554.32 448.87 559.18 437.6 559.18 437.6 565.46 449.76 565.46 449.76 570.36" style="fill:#040505"/><polygon points="426.95 549.97 418.82 549.97 418.82 570.36 412.13 570.36 412.13 549.97 404.02 549.97 404.02 545.09 426.95 545.09 426.95 549.97" style="fill:#040505"/><polygon points="399.98 570.36 393.53 570.36 382.52 552.98 382.52 570.36 376.38 570.36 376.38 545.08 384.4 545.08 393.87 559.56 393.87 545.08 399.98 545.08 399.98 570.36" style="fill:#040505"/><polygon points="370.77 570.36 352.02 570.36 352.02 545.08 370.77 545.08 370.77 549.96 358.66 549.96 358.66 554.32 369.88 554.32 369.88 559.18 358.66 559.18 358.66 565.46 370.77 565.46 370.77 570.36" style="fill:#040505"/><path d="M346.87,556.83l-.09-.88-.11-.84-.06-.43-.11-.35-.22-.8-.09-.41-.17-.32-.3-.75-.19-.39-.19-.3-.39-.67-.22-.32-.24-.28-.45-.6-.56-.56-.52-.54-.56-.5-.63-.41-.35-.22-.3-.22-.41-.22-.43-.24-.45-.19-.47-.17-.45-.17-.56-.17-1.12-.3-1.19-.26-1.34-.13-1.4-.09-1.51,0h-9.44v25.27h9.16l1.47,0,1.44-.13,1.27-.09,1.21-.17.5-.15.58-.13.56-.19.52-.17.52-.19.47-.24,1-.47.6-.45.6-.41.56-.5.54-.52.52-.54.47-.58.45-.67.43-.67.41-.69.3-.75.15-.37.15-.37.13-.37.11-.45.06-.37.13-.41.09-.39,0-.43,0-.43,0-.43,0-.86Zm-6.92,1.47,0,.63-.06.54-.09.54-.11.5-.17.5-.17.45-.19.47-.22.41-.28.37-.26.39-.37.37-.32.34-.39.28-.41.28-.45.24-.52.3-.54.19-.58.17-.52.13-.65.09-.82.11-2,0h-1.68V549.78h1.68l1.9,0,.73.06.58.11.56.11.52.15.5.17.54.24.5.24.43.3.41.3.43.35.34.34.28.39.35.41.19.41.26.47.17.47.17.52.09.5.13.58.06.58,0,.54,0,.63Z" style="fill:#040505"/><polygon points="316.12 561.18 316.09 561.76 316.04 562.33 316 562.85 315.91 563.42 315.81 563.91 315.7 564.39 315.55 564.89 315.36 565.35 315.15 565.76 314.97 566.18 314.7 566.62 314.45 566.99 314.17 567.37 313.85 567.73 313.52 568.07 313.16 568.37 312.8 568.68 312.41 569 312 569.23 311.52 569.46 311.06 569.7 310.59 569.88 310.09 570.09 309.53 570.23 309.02 570.38 308.44 570.53 307.82 570.62 307.22 570.73 305.92 570.83 304.53 570.87 303.17 570.83 301.88 570.73 301.26 570.62 300.65 570.53 299.53 570.23 298.99 570.09 298.5 569.88 298.02 569.7 297.57 569.46 297.11 569.23 296.68 569 296.29 568.68 295.92 568.37 295.57 568.07 295.24 567.73 294.91 567.37 294.65 566.99 294.39 566.62 294.17 566.18 293.94 565.76 293.72 565.35 293.54 564.89 293.39 564.39 293.28 563.93 293.17 563.42 293.07 562.89 293.05 562.33 293.02 561.81 293.02 561.23 293.02 545.08 299.73 545.08 299.73 560.86 299.73 561.51 299.79 562.06 299.89 562.65 300 563.12 300.17 563.6 300.38 564.07 300.62 564.42 300.88 564.77 301.21 565.1 301.52 565.3 301.92 565.54 302.32 565.73 302.81 565.88 303.36 565.97 303.94 566.04 304.53 566.07 305.14 566.04 305.74 566.01 306.24 565.88 306.72 565.73 307.14 565.59 307.56 565.35 307.91 565.12 308.2 564.81 308.47 564.48 308.71 564.09 308.89 563.67 309.08 563.23 309.2 562.67 309.29 562.1 309.35 561.51 309.35 560.86 309.35 545.08 316.12 545.08 316.12 561.18" style="fill:#040505"/><polygon points="289.35 549.97 281.25 549.97 281.25 570.36 274.51 570.36 274.51 549.97 266.43 549.97 266.43 545.09 289.35 545.09 289.35 549.97" style="fill:#040505"/><polygon points="264.44 562.4 264.41 562.86 264.37 563.33 264.33 563.75 264.22 564.21 264.09 564.6 263.99 565.01 263.78 565.42 263.64 565.81 263.4 566.14 263.2 566.51 262.92 566.89 262.61 567.21 262.31 567.6 261.96 567.87 261.58 568.15 261.2 568.48 260.77 568.74 260.32 569.01 259.91 569.29 259.41 569.5 258.92 569.71 258.41 569.89 257.87 570.08 257.34 570.22 256.81 570.36 256.2 570.5 255.01 570.64 253.71 570.77 252.34 570.82 250.78 570.77 249.32 570.69 247.98 570.5 247.35 570.38 246.71 570.26 245.53 569.96 244.38 569.62 243.28 569.29 242.25 568.86 242.25 562.78 242.99 562.78 243.49 563.18 244.07 563.55 244.57 563.9 245.15 564.21 245.78 564.51 246.38 564.76 246.99 565.06 247.6 565.27 248.25 565.46 248.89 565.66 249.52 565.81 250.12 565.91 250.78 566.04 251.34 566.08 251.95 566.13 252.57 566.14 253.25 566.13 254.17 566.04 254.62 565.99 255.06 565.91 255.78 565.71 256.51 565.35 257.03 564.93 257.41 564.36 257.54 563.6 257.49 563.18 257.37 562.78 257.16 562.44 256.81 562.14 256.44 561.88 255.92 561.61 255.35 561.37 254.71 561.24 253.24 560.89 251.6 560.57 250.03 560.24 248.55 559.81 247.75 559.56 247.02 559.26 246.34 558.93 245.75 558.59 245.15 558.25 244.64 557.87 244.23 557.44 243.82 557.01 243.52 556.59 243.2 556.08 242.93 555.58 242.75 555.03 242.6 554.46 242.49 553.87 242.39 553.25 242.39 552.59 242.39 552.18 242.46 551.76 242.52 551.33 242.6 550.92 242.72 550.53 242.86 550.15 243.03 549.79 243.2 549.4 243.44 549.05 243.66 548.71 243.94 548.34 244.23 548.07 244.56 547.72 244.89 547.41 245.23 547.13 245.65 546.84 246.09 546.56 246.48 546.34 246.91 546.07 247.36 545.88 247.87 545.65 248.31 545.49 248.87 545.3 249.34 545.15 250.42 544.91 250.99 544.82 251.58 544.73 252.77 544.65 254.03 544.63 255.27 544.63 256.55 544.73 257.82 544.86 259.06 545.08 260.27 545.32 261.42 545.65 262.45 545.95 263.4 546.28 263.4 552.13 262.7 552.13 262.31 551.84 261.87 551.53 261.42 551.26 260.94 550.99 260.46 550.75 259.95 550.53 258.84 550.08 258.27 549.89 257.68 549.74 257.12 549.57 256.55 549.47 255.97 549.4 255.38 549.3 254.77 549.27 254.2 549.27 253.37 549.27 252.95 549.3 252.52 549.35 252.12 549.44 251.71 549.55 251.31 549.64 250.92 549.79 250.3 550.12 249.77 550.58 249.39 551.11 249.28 551.76 249.32 552.22 249.49 552.64 249.74 552.97 250.07 553.3 250.53 553.55 251.2 553.76 251.6 553.9 252.03 554 253.02 554.24 254.45 554.56 255.78 554.83 257.16 555.11 258.62 555.58 259.32 555.81 260.02 556.08 260.63 556.38 261.2 556.68 261.73 557.01 262.19 557.38 262.65 557.75 263.03 558.19 263.33 558.59 263.64 559.04 263.86 559.5 264.06 560.05 264.25 560.57 264.33 561.14 264.41 561.76 264.44 562.4" style="fill:#040505"/><polygon points="225.82 570.36 207.03 570.36 207.03 545.08 225.82 545.08 225.82 549.96 213.72 549.96 213.72 554.32 224.96 554.32 224.96 559.18 213.72 559.18 213.72 565.46 225.82 565.46 225.82 570.36" style="fill:#020202"/><polygon points="202.45 562.4 202.45 562.86 202.44 563.33 202.34 563.75 202.26 564.21 202.17 564.6 201.99 565.01 201.84 565.42 201.66 565.81 201.43 566.14 201.2 566.51 200.93 566.89 200.62 567.21 200.31 567.6 199.96 567.87 199.59 568.15 199.22 568.48 198.79 568.74 198.37 569.01 197.91 569.29 197.45 569.5 196.95 569.71 196.45 569.89 195.91 570.08 195.4 570.22 194.82 570.36 194.24 570.5 193.03 570.64 191.73 570.77 190.39 570.82 188.83 570.77 187.37 570.69 186 570.5 185.38 570.38 184.78 570.26 183.59 569.96 182.45 569.62 181.34 569.29 180.28 568.86 180.28 562.78 180.99 562.78 182.07 563.55 182.63 563.9 183.24 564.21 183.79 564.51 184.39 564.76 185 565.06 185.66 565.27 186.3 565.46 186.92 565.66 187.57 565.81 188.16 565.91 188.78 566.04 189.41 566.08 190.02 566.13 190.6 566.14 191.31 566.13 192.19 566.04 192.69 565.99 193.1 565.91 193.83 565.71 194.17 565.55 194.51 565.35 195.08 564.93 195.49 564.36 195.59 563.6 195.54 563.18 195.4 562.78 195.16 562.44 194.85 562.14 194.45 561.88 193.97 561.61 193.4 561.37 192.76 561.24 191.25 560.89 189.68 560.57 188.06 560.24 186.56 559.81 185.79 559.56 185.05 559.26 184.39 558.93 183.79 558.59 183.24 558.25 182.71 557.87 182.26 557.44 181.88 557.01 181.53 556.59 181.23 556.08 180.99 555.58 180.79 555.03 180.65 554.46 180.55 553.87 180.45 553.25 180.41 552.59 180.45 552.18 180.5 551.76 180.55 551.33 180.65 550.92 180.75 550.53 180.89 550.15 181.07 549.79 181.27 549.4 181.44 549.05 181.7 548.71 181.96 548.34 182.26 548.07 182.57 547.72 182.89 547.41 183.28 547.13 183.67 546.84 184.08 546.56 184.52 546.34 184.97 546.07 185.42 545.88 185.89 545.65 186.38 545.49 186.87 545.3 187.42 545.15 188.48 544.91 189.02 544.82 189.62 544.73 190.81 544.65 192.03 544.63 193.34 544.63 194.58 544.73 195.84 544.86 197.12 545.08 198.33 545.32 199.45 545.65 200.47 545.95 201.43 546.28 201.43 552.13 200.75 552.13 200.31 551.84 199.91 551.53 199.45 551.26 198.99 550.99 198.49 550.75 198 550.53 196.88 550.08 196.29 549.89 195.74 549.74 195.16 549.57 194.58 549.47 193.97 549.4 193.4 549.3 192.83 549.27 192.2 549.27 191.39 549.27 191.01 549.3 190.6 549.35 190.16 549.44 189.74 549.55 189.37 549.64 188.96 549.79 188.34 550.12 187.78 550.58 187.46 551.11 187.33 551.76 187.37 552.22 187.53 552.64 187.76 552.97 188.1 553.3 188.6 553.55 189.25 553.76 189.62 553.9 190.05 554 191.08 554.24 192.46 554.56 193.83 554.83 195.16 555.11 196.67 555.58 197.38 555.81 198.04 556.08 198.69 556.38 199.24 556.68 199.74 557.01 200.24 557.38 200.65 557.75 201.05 558.19 201.4 558.59 201.66 559.04 201.92 559.5 202.12 560.05 202.26 560.57 202.4 561.14 202.45 561.76 202.45 562.4" style="fill:#020202"/><polygon points="175.68 568.89 174.74 569.23 173.66 569.58 171.06 570.22 169.61 570.49 168.2 570.73 166.75 570.83 165.33 570.87 163.74 570.83 162.93 570.78 162.2 570.66 161.47 570.54 160.76 570.37 160.07 570.2 159.42 569.98 158.82 569.79 158.16 569.52 157.61 569.19 157.01 568.89 156.47 568.55 155.93 568.22 155.45 567.78 154.96 567.37 154.5 566.92 154.08 566.46 153.69 565.96 153.32 565.45 152.97 564.93 152.66 564.36 152.4 563.78 152.15 563.22 151.94 562.61 151.74 561.94 151.59 561.32 151.44 560.62 151.36 559.89 151.28 559.19 151.23 558.43 151.22 557.67 151.23 556.95 151.28 556.26 151.36 555.55 151.44 554.89 151.59 554.24 151.74 553.58 151.94 552.98 152.15 552.36 152.4 551.76 152.69 551.22 153.01 550.65 153.33 550.12 153.72 549.63 154.11 549.12 154.51 548.62 155 548.16 155.47 547.74 155.97 547.31 156.51 546.95 157.11 546.6 157.65 546.28 158.26 545.99 158.87 545.72 159.53 545.44 160.18 545.27 160.9 545.08 161.59 544.91 162.37 544.81 163.11 544.68 163.89 544.64 165.54 544.58 166.79 544.58 168.04 544.68 169.23 544.81 170.42 545.04 171.03 545.15 171.6 545.31 172.25 545.48 172.86 545.7 174.18 546.18 175.57 546.83 175.57 552.73 174.85 552.73 174.23 552.28 173.39 551.73 172.47 551.15 171.6 550.59 171.06 550.34 170.49 550.12 169.88 549.89 169.23 549.68 168.56 549.5 167.82 549.39 167.11 549.3 166.35 549.3 165.9 549.3 165.49 549.3 165.06 549.35 164.64 549.44 164.25 549.5 163.89 549.58 163.51 549.68 163.11 549.8 162.44 550.09 161.74 550.47 161.13 550.88 160.53 551.36 160.01 551.91 159.76 552.21 159.56 552.52 159.36 552.86 159.15 553.21 158.97 553.54 158.82 553.97 158.65 554.33 158.54 554.77 158.43 555.18 158.3 555.65 158.26 556.12 158.18 556.58 158.16 557.61 158.16 558.09 158.18 558.6 158.22 559.09 158.3 559.55 158.4 560 158.51 560.46 158.61 560.9 158.74 561.32 158.87 561.69 159.08 562.06 159.25 562.39 159.46 562.76 159.7 563.1 159.92 563.41 160.18 563.69 160.45 564.02 160.76 564.3 161.07 564.52 161.35 564.78 161.72 564.97 162.11 565.15 162.48 565.34 162.85 565.55 163.28 565.67 163.68 565.8 164.15 565.91 164.61 566 165.11 566.08 165.6 566.15 166.11 566.17 166.63 566.24 167.22 566.24 167.6 566.24 168.04 566.24 168.49 566.17 168.89 566.15 168.89 561.18 163.68 561.18 163.68 556.42 175.68 556.42 175.68 568.89" style="fill:#020202"/><polygon points="147.12 570.36 128.32 570.36 128.32 545.08 147.12 545.08 147.12 549.96 135.02 549.96 135.02 554.32 146.24 554.32 146.24 559.18 135.02 559.18 135.02 565.46 147.12 565.46 147.12 570.36" style="fill:#020202"/><polygon points="122.71 570.36 103.92 570.36 103.92 545.08 122.71 545.08 122.71 549.96 110.62 549.96 110.62 554.32 121.84 554.32 121.84 559.18 110.62 559.18 110.62 565.46 122.71 565.46 122.71 570.36" style="fill:#020202"/><polygon points="97.32 570.36 90.68 570.36 90.68 553.44 85.86 564.4 81.24 564.4 76.44 553.44 76.44 570.36 70.08 570.36 70.08 545.08 77.88 545.08 83.73 557.75 89.53 545.08 97.32 545.08 97.32 570.36" style="fill:#020202"/><polygon points="63.79 562.95 63.79 563.33 63.75 563.74 63.7 564.16 63.63 564.55 63.56 564.93 63.45 565.3 63.34 565.7 63.16 566.05 63.02 566.42 62.88 566.76 62.45 567.37 61.95 567.98 61.7 568.23 61.38 568.51 61.08 568.73 60.74 569.02 60.36 569.23 59.95 569.43 59.59 569.66 59.16 569.85 58.75 569.98 58.32 570.16 57.87 570.32 57.38 570.44 56.83 570.5 56.3 570.62 55.13 570.71 54.49 570.74 53.87 570.74 52.15 570.71 50.5 570.62 49 570.48 47.7 570.22 47.7 565.15 48.32 565.15 49.17 565.43 50.06 565.7 50.53 565.8 51.12 565.9 51.71 565.96 52.35 565.96 52.84 565.96 53.25 565.96 54 565.85 54.67 565.7 55.2 565.49 55.65 565.24 56.03 564.93 56.38 564.6 56.61 564.16 56.8 563.74 56.93 563.29 57.02 562.82 57.07 562.33 57.1 561.23 57.1 559.8 57.1 549.74 51.18 549.74 51.18 545.08 63.79 545.08 63.79 562.95" style="fill:#020202"/><polygon points="44.82 570.36 29.62 570.36 29.62 565.88 33.88 565.88 33.88 549.55 29.62 549.55 29.62 545.08 44.82 545.08 44.82 549.55 40.56 549.55 40.56 565.88 44.82 565.88 44.82 570.36" style="fill:#020202"/><polygon points="24.14 570.36 17.72 570.36 6.68 552.98 6.68 570.36 0.55 570.36 0.55 545.08 8.58 545.08 18.04 559.56 18.04 545.08 24.14 545.08 24.14 570.36" style="fill:#020202"/><polygon points="578.96 322.6 578.76 323.02 578.66 323.47 569.96 327.59 561.38 331.83 544.98 337.81 528.29 343.47 522.39 344.92 520.99 345.39 520.25 345.62 519.56 345.88 518.88 346.19 518.2 346.52 517.55 346.9 516.94 347.33 518.06 348.13 519.15 348.95 520.2 349.77 521.18 350.69 523.12 352.52 524.99 354.47 532.14 362.52 536.83 360.86 541.88 359.32 547.21 357.94 552.81 356.73 564.67 354.85 577.16 353.6 581.29 353.4 585.2 353.4 589 353.56 592.62 353.89 596.11 354.36 599.47 354.96 602.72 355.7 605.83 356.49 611.89 358.36 617.64 360.44 628.77 364.63 628.84 363.23 628.95 361.89 629.13 360.62 629.38 359.42 629.73 358.29 630.07 357.23 630.48 356.17 630.92 355.16 631.43 354.21 631.95 353.28 633.09 351.46 635.35 347.94 631.02 347.07 626.84 346.08 622.83 344.92 618.95 343.68 611.59 340.84 604.58 337.6 597.91 334.1 591.49 330.39 578.96 322.6" style="fill:#234294"/><polygon points="546.46 334.75 548.7 327.16 550.92 318.64 551.81 314.81 552.71 310.08 553.07 307.69 553.24 305.35 553.29 304.26 553.24 303.23 553.18 302.23 553.08 301.77 552.97 301.35 552.88 300.94 552.71 300.44 552.5 299.97 552.21 299.44 551.92 298.9 551.58 298.33 550.81 297.15 547.32 292.41 542.87 286.6 538.15 281.05 533.26 275.62 528.19 270.43 522.9 265.43 517.35 260.63 511.62 256.06 505.62 251.74 499.45 247.68 493.03 243.83 486.38 240.23 479.48 236.94 472.35 233.89 464.97 231.15 457.36 228.66 449.5 226.51 441.8 224.8 433.3 223.35 424.16 222.24 414.7 221.52 405.04 221.22 395.46 221.4 386.13 222.17 381.66 222.79 377.35 223.54 373.49 224.3 371.23 224.8 368.96 225.45 367.9 225.84 366.85 226.22 366.34 226.44 365.89 226.67 365.42 226.9 365 227.14 364.6 227.4 364.25 227.66 363.92 227.93 363.58 228.2 363.29 228.51 363.05 228.86 362.71 229.51 362.52 230.21 362.48 230.63 362.45 231.05 362.45 231.48 362.45 231.94 362.48 232.44 362.56 232.94 362.76 233.97 363 235.03 363.63 237.3 366.6 245.89 368.96 254.58 369.88 258.86 370.26 260.91 370.48 262.91 371.06 270.64 371.2 278.32 370.95 285.86 370.48 292.98 370.05 297.57 369.88 299.78 369.86 300.86 369.88 301.95 375.52 301.77 381.09 301.31 392.08 299.94 402.84 298.56 408.17 298.18 413.44 298.06 418.68 298.29 423.74 298.75 428.67 299.41 433.49 300.28 438.09 301.35 442.63 302.61 447.01 304.03 451.29 305.62 455.4 307.34 459.46 309.19 467.2 313.18 474.61 317.59 481.72 322.23 495.36 332.03 508.27 342.51 520.8 353.85 523.97 356.58 527.26 359.17 530.62 361.53 532.4 362.62 534.19 363.67 536.18 360.46 537.99 357.09 539.61 353.67 541.15 350.07 543.9 342.58 546.46 334.75" style="fill:#388fc5"/></g></svg>